<svg xmlns="http://www.w3.org/2000/svg" fill="#ffffff" class="bi bi-crosshair" viewBox="0 0 16 16" id="Crosshair--Streamline-Bootstrap" height="16" width="16">
  <desc>
    Crosshair Streamline Icon: https://streamlinehq.com
  </desc>
  <path d="M8.5 0.5a0.5 0.5 0 0 0 -1 0v0.518A7 7 0 0 0 1.018 7.5H0.5a0.5 0.5 0 0 0 0 1h0.518A7 7 0 0 0 7.5 14.982v0.518a0.5 0.5 0 0 0 1 0v-0.518A7 7 0 0 0 14.982 8.5h0.518a0.5 0.5 0 0 0 0 -1h-0.518A7 7 0 0 0 8.5 1.018zm-6.48 7A6 6 0 0 1 7.5 2.02v0.48a0.5 0.5 0 0 0 1 0v-0.48a6 6 0 0 1 5.48 5.48h-0.48a0.5 0.5 0 0 0 0 1h0.48a6 6 0 0 1 -5.48 5.48v-0.48a0.5 0.5 0 0 0 -1 0v0.48A6 6 0 0 1 2.02 8.5h0.48a0.5 0.5 0 0 0 0 -1zM8 10a2 2 0 1 0 0 -4 2 2 0 0 0 0 4" stroke-width="1"></path>
</svg>